# xmcd
#
# Track frame offsets:
#	150
#	30895
#	50133
#	70776
#	86939
#	110482
#	142167
#	163861
#	188384
#	209919
#	225512
#	255374
#	275391
#	308882
#
# Disc length: 4483 seconds
#
# Revision: 0
# Processed by: cddbd v1.5.2PL0 Copyright (c) Steve Scherf et al.
# Submitted via: EasyCDDAExtractor 10.0.2.1
#
DISCID=c711810e
DTITLE=Saxon - The Garage Glasgow 19-05-07 Master and Source 2 Disc 1
DYEAR=2007
DGENRE=Hard Rock
TTITLE0=State Of Grace
TTITLE1=Let Me Feel Your Power
TTITLE2=Motorcycle Man 
TTITLE3=If I Was You
TTITLE4=Strong Arm Of The Law
TTITLE5=The Thin Red Line
TTITLE6=20 000 Feet
TTITLE7=Are We Travellers In Time
TTITLE8=Witchfinder General
TTITLE9=To Hell And Back Again 
TTITLE10=Red Star Falling
TTITLE11=Princess Of The Night
TTITLE12=The Crusader
TTITLE13=I Have To Rock (To Stay Alive)
EXTD=
EXTT0=
EXTT1=
EXTT2=
EXTT3=
EXTT4=
EXTT5=
EXTT6=
EXTT7=
EXTT8=
EXTT9=
EXTT10=
EXTT11=
EXTT12=
EXTT13=
PLAYORDER=
